<svg width="241" height="41" viewBox="0 0 241 41" fill="none" xmlns="http://www.w3.org/2000/svg">
<path d="M19.72 20.816L26.2 4.4H38.68L19.72 40.4L0.76 4.4H13.24L19.72 20.816ZM36.0494 26.96C36.0494 24.56 36.6254 22.496 37.7774 20.768C38.9294 19.04 40.5134 17.712 42.5294 16.784C44.5454 15.856 46.8334 15.392 49.3934 15.392C51.9534 15.392 54.2414 15.856 56.2574 16.784C58.2734 17.712 59.8574 19.04 61.0094 20.768C62.1614 22.496 62.7374 24.56 62.7374 26.96C62.7374 29.328 62.1614 31.376 61.0094 33.104C59.8574 34.832 58.2734 36.16 56.2574 37.088C54.2414 38.016 51.9534 38.48 49.3934 38.48C46.8334 38.48 44.5454 38.016 42.5294 37.088C40.5134 36.16 38.9294 34.832 37.7774 33.104C36.6254 31.376 36.0494 29.328 36.0494 26.96ZM45.6974 26.96C45.6974 27.856 45.8734 28.608 46.2254 29.216C46.5774 29.824 47.0254 30.288 47.5694 30.608C48.1454 30.896 48.7534 31.04 49.3934 31.04C50.0334 31.04 50.6254 30.896 51.1694 30.608C51.7454 30.288 52.2094 29.824 52.5614 29.216C52.9134 28.608 53.0894 27.856 53.0894 26.96C53.0894 26.064 52.9134 25.312 52.5614 24.704C52.2094 24.096 51.7454 23.632 51.1694 23.312C50.6254 22.992 50.0334 22.832 49.3934 22.832C48.7534 22.832 48.1454 22.992 47.5694 23.312C47.0254 23.632 46.5774 24.096 46.2254 24.704C45.8734 25.312 45.6974 26.064 45.6974 26.96ZM66.5875 0.559999H75.9475V38H66.5875V0.559999ZM79.7838 26.96C79.7838 24.56 80.3598 22.496 81.5117 20.768C82.6638 19.04 84.2478 17.712 86.2638 16.784C88.2798 15.856 90.5678 15.392 93.1278 15.392C95.6878 15.392 97.9758 15.856 99.9918 16.784C102.008 17.712 103.592 19.04 104.744 20.768C105.896 22.496 106.472 24.56 106.472 26.96C106.472 29.328 105.896 31.376 104.744 33.104C103.592 34.832 102.008 36.16 99.9918 37.088C97.9758 38.016 95.6878 38.48 93.1278 38.48C90.5678 38.48 88.2798 38.016 86.2638 37.088C84.2478 36.16 82.6638 34.832 81.5117 33.104C80.3598 31.376 79.7838 29.328 79.7838 26.96ZM89.4318 26.96C89.4318 27.856 89.6078 28.608 89.9598 29.216C90.3118 29.824 90.7598 30.288 91.3038 30.608C91.8798 30.896 92.4878 31.04 93.1278 31.04C93.7678 31.04 94.3598 30.896 94.9038 30.608C95.4798 30.288 95.9438 29.824 96.2958 29.216C96.6478 28.608 96.8238 27.856 96.8238 26.96C96.8238 26.064 96.6478 25.312 96.2958 24.704C95.9438 24.096 95.4798 23.632 94.9038 23.312C94.3598 22.992 93.7678 22.832 93.1278 22.832C92.4878 22.832 91.8798 22.992 91.3038 23.312C90.7598 23.632 90.3118 24.096 89.9598 24.704C89.6078 25.312 89.4318 26.064 89.4318 26.96Z" fill="url(#paint0_linear_38_5)"/>
<path d="M111.282 4.4H121.842V29.12H135.522V38H111.282V4.4ZM150.795 38.48C147.915 38.48 145.435 38.016 143.355 37.088C141.307 36.16 139.723 34.848 138.603 33.152C137.515 31.424 136.971 29.36 136.971 26.96C136.971 24.528 137.499 22.464 138.555 20.768C139.611 19.04 141.131 17.728 143.115 16.832C145.099 15.904 147.499 15.44 150.315 15.44C153.099 15.44 155.435 15.872 157.323 16.736C159.243 17.568 160.683 18.816 161.643 20.48C162.635 22.112 163.131 24.128 163.131 26.528C163.131 26.944 163.131 27.36 163.131 27.776C163.131 28.16 163.099 28.528 163.035 28.88H142.059V24.368H154.347L152.523 26.576C152.715 26.288 152.875 25.984 153.003 25.664C153.131 25.344 153.195 25.072 153.195 24.848C153.195 24.08 153.067 23.424 152.811 22.88C152.555 22.336 152.187 21.92 151.707 21.632C151.259 21.344 150.715 21.2 150.075 21.2C149.211 21.2 148.507 21.408 147.963 21.824C147.419 22.208 147.019 22.832 146.763 23.696C146.507 24.528 146.379 25.616 146.379 26.96C146.347 28.08 146.475 29.04 146.763 29.84C147.083 30.608 147.531 31.2 148.107 31.616C148.715 32.032 149.451 32.24 150.315 32.24C151.467 32.24 152.427 32.064 153.195 31.712C153.963 31.328 154.539 30.784 154.923 30.08L163.467 31.424C162.283 33.792 160.635 35.568 158.523 36.752C156.443 37.904 153.867 38.48 150.795 38.48ZM175.149 31.04C175.149 31.456 175.245 31.808 175.437 32.096C175.661 32.352 175.933 32.56 176.253 32.72C176.605 32.848 176.973 32.912 177.357 32.912C177.965 32.912 178.541 32.784 179.085 32.528C179.661 32.24 180.125 31.808 180.477 31.232C180.861 30.624 181.053 29.84 181.053 28.88L181.821 31.76C181.821 33.168 181.469 34.384 180.765 35.408C180.061 36.4 179.101 37.168 177.885 37.712C176.669 38.224 175.293 38.48 173.757 38.48C172.317 38.48 170.989 38.224 169.773 37.712C168.557 37.2 167.581 36.432 166.845 35.408C166.109 34.352 165.741 33.072 165.741 31.568C165.741 29.456 166.477 27.808 167.949 26.624C169.453 25.408 171.613 24.8 174.429 24.8C175.581 24.8 176.685 24.896 177.741 25.088C178.829 25.28 179.789 25.552 180.621 25.904C181.485 26.224 182.157 26.64 182.637 27.152V30.944C182.093 30.464 181.357 30.08 180.429 29.792C179.533 29.504 178.605 29.36 177.645 29.36C177.037 29.36 176.541 29.424 176.157 29.552C175.805 29.68 175.549 29.872 175.389 30.128C175.229 30.352 175.149 30.656 175.149 31.04ZM170.301 23.696L167.469 17.648C169.005 17.04 170.733 16.48 172.653 15.968C174.605 15.456 176.637 15.2 178.749 15.2C180.829 15.2 182.717 15.488 184.413 16.064C186.109 16.64 187.453 17.488 188.445 18.608C189.437 19.696 189.933 21.04 189.933 22.64V38H181.053V24.944C181.053 24.528 180.989 24.144 180.861 23.792C180.733 23.44 180.525 23.136 180.237 22.88C179.949 22.592 179.565 22.384 179.085 22.256C178.605 22.096 178.029 22.016 177.357 22.016C176.461 22.016 175.517 22.128 174.525 22.352C173.533 22.544 172.653 22.784 171.885 23.072C171.117 23.328 170.589 23.536 170.301 23.696ZM203.864 15.92V38H194.744V15.92H203.864ZM210.056 25.424C209.768 25.04 209.4 24.72 208.952 24.464C208.504 24.208 207.96 24.08 207.32 24.08C206.776 24.08 206.232 24.24 205.688 24.56C205.144 24.88 204.696 25.376 204.344 26.048C204.024 26.72 203.864 27.584 203.864 28.64L202.136 24.56C202.136 22.8 202.504 21.232 203.24 19.856C203.976 18.48 204.936 17.392 206.12 16.592C207.336 15.76 208.616 15.344 209.96 15.344C210.76 15.344 211.528 15.552 212.264 15.968C213.032 16.352 213.56 16.816 213.848 17.36L210.056 25.424ZM230.894 24.56C230.894 23.568 230.75 22.8 230.462 22.256C230.174 21.68 229.55 21.392 228.59 21.392C228.046 21.392 227.566 21.504 227.15 21.728C226.734 21.952 226.414 22.304 226.19 22.784C225.966 23.232 225.854 23.824 225.854 24.56V38H216.494V15.92H225.854V19.136C226.462 18.016 227.31 17.12 228.398 16.448C229.518 15.744 230.942 15.392 232.67 15.392C235.678 15.392 237.774 16.112 238.958 17.552C240.142 18.96 240.734 20.976 240.734 23.6V38H230.894V24.56Z" fill="#1E1E1E"/>
<defs>
<linearGradient id="paint0_linear_38_5" x1="1" y1="15" x2="118.5" y2="15" gradientUnits="userSpaceOnUse">
<stop stop-color="#FEB860"/>
<stop offset="1" stop-color="#FDACA0"/>
</linearGradient>
</defs>
</svg>
